<svg viewBox="0 0 500 500" xmlns="http://www.w3.org/2000/svg" xmlns:xlink="http://www.w3.org/1999/xlink" width="100%" id="blobSvg">
  <path id="blob" d="M431.5,272Q386,294,390,324.5Q394,355,342,330Q290,305,297.5,362.5Q305,420,277.5,422.5Q250,425,235.5,382Q221,339,175,378Q129,417,123.5,381.5Q118,346,100,325.5Q82,305,64.5,277.5Q47,250,31.5,212Q16,174,47,149.5Q78,125,128.5,139Q179,153,196,144.5Q213,136,231.5,105.5Q250,75,285.5,53.5Q321,32,327,83.5Q333,135,368.5,136.5Q404,138,420,164Q436,190,456.5,220Q477,250,431.5,272Z" fill="#2FCC40"></path>
</svg>